<?xml version="1.0" encoding="utf-8"?>
<!-- Generator: Adobe Illustrator 27.5.0, SVG Export Plug-In . SVG Version: 6.00 Build 0)  -->
<svg version="1.1" id="Layer" xmlns="http://www.w3.org/2000/svg" xmlns:xlink="http://www.w3.org/1999/xlink" x="0px" y="0px"
	 viewBox="0 0 466.219 450" style="enable-background:new 0 0 466.219 450;" xml:space="preserve">
<g>
	<g>
		<path style="fill:#F2F2F2;" d="M375.28,361.3l-55.965-32.368l8.687-5.015c3.437-1.984,3.81-4.986,0.834-6.704l-67.067-38.819
			c-2.976-1.718-8.175-1.503-11.612,0.481l-8.702,5.025l-62.548-36.176c-2.668-1.54-7.329-1.347-10.41,0.432l-1.577,0.911
			c-3.081,1.779-3.416,4.47-0.747,6.01l62.548,36.176l-8.698,5.022c-3.437,1.984-3.81,4.986-0.834,6.704l67.067,38.819
			c2.976,1.718,8.175,1.503,11.612-0.481l8.714-5.031l55.965,32.368c2.668,1.541,7.329,1.348,10.41-0.432l1.577-0.91
			C377.614,365.532,377.949,362.841,375.28,361.3z"/>
		<g>
			<g>
				<path style="fill:#404040;" d="M264.364,237.755v46.904c0,1.207-0.71,2.302-1.812,2.795l-21.873,10.744v-0.329l-6.802,0.488
					l0.027,4.45c0.041,0.618,0.446,1.233,1.275,1.711l50.295,29.038c1.884,1.087,4.982,0.98,6.603-0.228l21.073-15.744
					c1.316-0.98,2.091-2.524,2.091-4.165v-46.291L264.364,237.755z"/>
				<linearGradient id="SVGID_1_" gradientUnits="userSpaceOnUse" x1="293.2531" y1="261.4259" x2="261.0647" y2="320.5104">
					<stop  offset="0" style="stop-color:#636363"/>
					<stop  offset="0.494" style="stop-color:#E6E6E6"/>
					<stop  offset="1" style="stop-color:#E6E6E6"/>
				</linearGradient>
				<path style="fill:url(#SVGID_1_);" d="M260.498,236.363v46.904c0,1.208-0.71,2.302-1.812,2.795l-23.112,10.332
					c-2.093,0.936-2.279,2.724-0.395,3.812l50.295,29.038c1.884,1.087,4.982,0.98,6.603-0.228l17.208-12.823
					c1.315-0.98,2.09-2.524,2.09-4.164v-46.291L260.498,236.363z"/>
			</g>
			<path style="fill:#737373;" d="M368.917,153.997L181.482,45.781c-2.233-1.289-4.281-1.421-5.885-0.598l0-0.001l-0.009,0.005
				c-0.033,0.017-0.064,0.038-0.097,0.056l-4.595,2.668l1.164,2.098l0.421-0.115c-0.191,0.881-0.304,1.849-0.304,2.92v76.879v53.876
				v14.167c0,6.851,4.165,14.81,9.304,17.776l187.435,108.215c0.122,0.07,0.24,0.121,0.36,0.184l0.638,3.239l5.284-3.07
				c1.853-1.198,3.021-3.769,3.021-7.386v-14.167v-53.876v-76.879C378.221,164.922,374.055,156.964,368.917,153.997z"/>
			<g>
				<path style="fill:#CCCCCC;" d="M364.095,326.518L176.661,218.303c-5.139-2.967-9.304-10.925-9.304-17.777v-68.043
					l206.042,118.958v68.043C373.399,326.336,369.234,329.485,364.095,326.518z"/>
				<g>
					<path style="fill:#8C8C8C;" d="M318.987,220.025l-0.22,72.296c0,1.591-1.126,2.228-2.522,1.42l-147.113-84.904
						c-1.126-2.693-1.787-5.582-1.787-8.299v-68.061L318.987,220.025z"/>
				</g>
				<path style="fill:#404040;" d="M373.399,305.317L167.357,186.359V55.605c0-6.851,4.165-10,9.304-7.034l187.435,108.216
					c5.138,2.967,9.304,10.925,9.304,17.777V305.317z"/>
				<path style="fill:#262626;" d="M373.399,174.56v10.263l-10.116-5.841v-6.574c0-2.221-1.184-4.266-3.101-5.381l-16.896-9.754
					l0.029-12.484l20.78,11.994C369.231,159.758,373.399,167.711,373.399,174.56z"/>
				<path style="fill:#6D64FF;" d="M359.862,288.415L180.044,184.596c-1.922-1.11-3.106-3.161-3.106-5.379V65.19
					c0-1.757,1.903-2.856,3.425-1.977l179.819,103.818c1.922,1.11,3.106,3.16,3.106,5.379v114.027
					C363.287,288.195,361.384,289.293,359.862,288.415z"/>
			</g>
		</g>
		<g>
			<g>
				<path style="fill:#1A1A1A;" d="M318.718,264.656l-0.025,9.083l-151.349-87.377V84.712l9.597,5.533v88.968
					c0,2.228,1.175,4.284,3.109,5.386L318.718,264.656z"/>
				<path style="fill:#372FC2;" d="M318.987,175.149l-0.269,89.507l-138.667-80.057c-1.934-1.102-3.109-3.158-3.109-5.386V90.245
					l139.524,80.571C317.861,171.623,318.987,173.558,318.987,175.149z"/>
			</g>
		</g>
		<g>
			<path style="fill:#F2F2F2;" d="M312.729,159.008l-157.011-90.65c-0.699-0.404-1.334-0.441-1.792-0.175l-4.251,2.471
				c0.459-0.267,1.094-0.229,1.792,0.175l157.011,90.651c1.394,0.805,2.515,2.746,2.511,4.349l-0.332,117.148
				c-0.002,0.793-0.283,1.352-0.735,1.616l4.252-2.471c0.453-0.263,0.733-0.823,0.736-1.616l0.332-117.148
				C315.245,161.755,314.124,159.813,312.729,159.008z"/>
			<g>
				<path style="fill:#CCCCCC;" d="M308.478,161.479c1.394,0.805,2.515,2.746,2.511,4.349l-0.332,117.148
					c-0.004,1.593-1.133,2.245-2.527,1.44l-157.011-90.65c-1.387-0.8-2.515-2.755-2.511-4.349l0.332-117.148
					c0.004-1.602,1.14-2.241,2.527-1.44L308.478,161.479z"/>
			</g>
			<path style="fill:#FFAA00;" d="M310.997,165.833l-0.036,13.458L148.91,85.728l0.036-13.458c0-1.609,1.126-2.234,2.52-1.448
				l157.011,90.65C309.871,162.277,310.997,164.225,310.997,165.833z"/>
			<path style="fill:#FFEA00;" d="M312.73,159.006l-6.917-3.986h0L155.719,68.356c-0.697-0.393-1.34-0.447-1.787-0.179l-4.254,2.484
				c0.447-0.268,1.09-0.232,1.787,0.161l153.108,88.391l3.903,2.259c1.394,0.804,2.52,2.752,2.52,4.361l-0.036,13.458l4.236-2.449
				l0.036-13.494C315.25,161.758,314.125,159.81,312.73,159.006z"/>
			<g>
				<g>
					<path style="fill:#0D0D0D;" d="M160.645,82.331c1.789,1.033,3.228,3.532,3.222,5.58c-0.006,2.056-1.454,2.881-3.243,1.848
						c-1.782-1.029-3.228-3.525-3.222-5.58C157.408,82.131,158.863,81.302,160.645,82.331z"/>
				</g>
				<g>
					<path style="fill:#0D0D0D;" d="M170.081,87.865c1.782,1.029,3.228,3.532,3.222,5.581c-0.006,2.056-1.46,2.877-3.243,1.848
						c-1.789-1.033-3.228-3.525-3.222-5.58C166.844,87.665,168.292,86.832,170.081,87.865z"/>
				</g>
				<g>
					<path style="fill:#0D0D0D;" d="M179.518,93.554c1.789,1.033,3.228,3.532,3.222,5.58c-0.006,2.056-1.454,2.881-3.243,1.848
						c-1.782-1.029-3.228-3.525-3.222-5.58C176.28,93.354,177.735,92.525,179.518,93.554z"/>
				</g>
				<g>
					<g style="enable-background:new    ;">
						<path style="fill:#FFFFFF;" d="M159.964,79.819c-0.897-0.518-1.711-0.565-2.299-0.224l-1.469,0.853
							c0.588-0.342,1.402-0.294,2.299,0.223c1.789,1.033,3.228,3.532,3.222,5.581c-0.003,1.021-0.362,1.739-0.941,2.076l1.468-0.854
							c0.58-0.337,0.938-1.054,0.941-2.076C163.192,83.351,161.753,80.852,159.964,79.819z"/>
						<g>
							<path style="fill:#E6E6E6;" d="M158.496,80.672c1.789,1.033,3.228,3.532,3.222,5.581c-0.006,2.056-1.454,2.881-3.243,1.848
								c-1.782-1.029-3.228-3.525-3.222-5.581C155.259,80.472,156.714,79.643,158.496,80.672z"/>
						</g>
					</g>
				</g>
				<g>
					<g style="enable-background:new    ;">
						<path style="fill:#FFFFFF;" d="M169.401,85.353c-0.899-0.519-1.713-0.567-2.3-0.226l-1.468,0.853
							c0.587-0.341,1.4-0.293,2.3,0.226c1.782,1.029,3.228,3.532,3.222,5.581c-0.003,1.02-0.363,1.737-0.942,2.073l1.468-0.853
							c0.579-0.337,0.939-1.053,0.942-2.074C172.628,88.885,171.183,86.382,169.401,85.353z"/>
						<g>
							<path style="fill:#E6E6E6;" d="M167.932,86.206c1.782,1.029,3.228,3.532,3.222,5.581c-0.006,2.056-1.46,2.877-3.243,1.848
								c-1.789-1.033-3.227-3.525-3.222-5.581C164.695,86.006,166.143,85.174,167.932,86.206z"/>
						</g>
					</g>
				</g>
				<g>
					<g style="enable-background:new    ;">
						<path style="fill:#FFFFFF;" d="M178.837,91.041c-0.897-0.518-1.711-0.565-2.299-0.223l-1.468,0.853
							c0.588-0.341,1.402-0.294,2.299,0.224c1.789,1.033,3.228,3.532,3.222,5.581c-0.003,1.021-0.362,1.739-0.941,2.076l1.468-0.853
							c0.58-0.337,0.939-1.054,0.942-2.076C182.065,94.574,180.626,92.075,178.837,91.041z"/>
						<g>
							<path style="fill:#E6E6E6;" d="M177.369,91.895c1.789,1.033,3.228,3.532,3.222,5.581c-0.006,2.056-1.454,2.881-3.243,1.848
								c-1.782-1.029-3.228-3.525-3.222-5.581C174.131,91.695,175.586,90.866,177.369,91.895z"/>
						</g>
					</g>
				</g>
			</g>
			<g>
				<g>
					<path d="M198.781,176.589v6.97l-6.97-4.022v14.784l-7.859-4.537V175l-24.716-14.269v-0.093l32.493-28.291l0.082,0.049v40.168
						L198.781,176.589z M183.952,168.026v-19.064l-12.885,11.627L183.952,168.026z"/>
					<path d="M215.27,204.381c-3.377-4.462-6.008-9.593-7.899-15.396c-1.892-5.802-2.836-11.865-2.836-18.186
						c0-10.104,1.985-16.661,5.959-19.668c3.97-3.007,9.437-2.47,16.407,1.616c4.377,2.526,8.25,6.004,11.627,10.433
						c3.377,4.429,6.011,9.545,7.903,15.347c1.888,5.802,2.836,11.836,2.836,18.097c0,6.448-0.948,11.481-2.836,15.097
						c-1.892,3.623-4.526,5.698-7.903,6.228c-3.377,0.53-7.25-0.5-11.627-3.09C222.527,212.332,218.646,208.84,215.27,204.381z
						 M237.393,206.134c2.459-2.672,3.713-7.467,3.769-14.377c-0.056-6.787-1.31-12.892-3.769-18.31
						c-2.459-5.418-5.985-9.451-10.571-12.101c-4.541-2.619-8.026-2.615-10.455,0.011c-2.429,2.627-3.675,7.328-3.728,14.116
						c0.052,6.914,1.299,13.105,3.728,18.564c2.429,5.467,5.914,9.508,10.455,12.127
						C231.408,208.814,234.934,208.806,237.393,206.134z"/>
					<path d="M292.778,230.859v6.97l-6.97-4.023v14.784l-7.858-4.537v-14.784L253.232,215v-0.093l32.493-28.291l0.082,0.048v40.168
						L292.778,230.859z M277.949,222.295v-19.063l-12.885,11.627L277.949,222.295z"/>
				</g>
			</g>
		</g>
	</g>
	<g>
		<path style="fill:#F2F2F2;" d="M166.823,328.288L52.928,262.403c-1.733-1.001-1.515-2.748,0.485-3.903l10.293-5.943
			c2.001-1.155,5.028-1.281,6.761-0.28l113.895,65.884c1.733,1.001,1.516,2.748-0.485,3.903l-10.293,5.943
			C171.583,329.163,168.556,329.288,166.823,328.288z"/>
		<g>
			<g>
				<g>
					<path style="fill:#404040;" d="M177.804,317.309v1.609c-0.004,1.434-0.947,2.866-2.83,3.96
						c-3.792,2.204-9.957,2.204-13.781-0.004c-1.921-1.109-2.88-2.564-2.876-4.017v-1.609c-0.004,1.453,0.955,2.908,2.876,4.017
						c3.824,2.208,9.99,2.208,13.781,0.004C176.857,320.175,177.8,318.744,177.804,317.309z"/>
				</g>
				<g>
					<path style="fill:#737373;" d="M174.922,313.286c3.824,2.208,3.844,5.779,0.053,7.983c-3.792,2.203-9.957,2.203-13.781-0.004
						c-3.816-2.203-3.837-5.775-0.045-7.978C164.94,311.083,171.106,311.083,174.922,313.286z"/>
				</g>
				<g>
					<path style="fill:#262626;" d="M170.891,315.602c1.577,0.911,1.585,2.383,0.022,3.292c-1.564,0.909-4.106,0.909-5.683-0.002
						c-1.574-0.909-1.582-2.382-0.019-3.29C166.774,314.693,169.317,314.693,170.891,315.602z"/>
				</g>
				<path style="fill:#262626;" d="M177.802,317.314v1.609c0,1.431-0.947,2.861-2.832,3.953c-1.904,1.112-4.407,1.663-6.911,1.653
					v-1.609c2.503,0.01,5.007-0.541,6.911-1.653C176.855,320.175,177.802,318.744,177.802,317.314z"/>
			</g>
			<g>
				<g style="enable-background:new    ;">
					<g>
						<path style="fill:#404040;" d="M171.646,240.572v76.545c-0.001,0.528-0.348,1.054-1.041,1.457
							c-1.395,0.811-3.663,0.811-5.07-0.002c-0.707-0.408-1.06-0.943-1.058-1.478v-76.545c-0.002,0.535,0.351,1.07,1.058,1.478
							c1.407,0.812,3.675,0.812,5.07,0.002C171.298,241.626,171.644,241.099,171.646,240.572z"/>
					</g>
					<path style="fill:#262626;" d="M171.643,240.572v76.541c0,0.53-0.342,1.059-1.042,1.458c-0.701,0.407-1.621,0.611-2.541,0.611
						v-76.549c0.92,0.008,1.841-0.196,2.541-0.603C171.301,241.623,171.643,241.102,171.643,240.572z"/>
					<g>
						<path style="fill:#737373;" d="M170.585,239.091c1.407,0.812,1.415,2.126,0.019,2.937c-1.395,0.811-3.663,0.811-5.07-0.002
							c-1.404-0.811-1.412-2.125-0.017-2.935C166.913,238.281,169.181,238.281,170.585,239.091z"/>
					</g>
				</g>
			</g>
			<g>
				<g style="enable-background:new    ;">
					<g>
						<path style="fill:#404040;" d="M170.681,236.15v3.922c-0.001,0.386-0.255,0.77-0.761,1.065
							c-1.019,0.592-2.677,0.592-3.705-0.001c-0.516-0.298-0.774-0.689-0.773-1.08v-3.922c-0.001,0.391,0.257,0.782,0.773,1.08
							c1.028,0.594,2.686,0.594,3.705,0.001C170.426,236.92,170.68,236.535,170.681,236.15z"/>
					</g>
					<g>
						<path style="fill:#737373;" d="M169.906,235.068c1.028,0.594,1.034,1.554,0.014,2.146c-1.019,0.592-2.677,0.592-3.705-0.001
							c-1.026-0.592-1.032-1.553-0.012-2.145C167.222,234.476,168.88,234.476,169.906,235.068z"/>
					</g>
				</g>
			</g>
			<path style="fill:#262626;" d="M170.682,236.15v3.926c0,0.383-0.253,0.766-0.766,1.059c-0.513,0.301-1.181,0.448-1.857,0.448
				v-3.926c0.676,0,1.344-0.147,1.857-0.44C170.43,236.923,170.682,236.532,170.682,236.15z"/>
		</g>
		<g>
			<g>
				<g>
					<path style="fill:#404040;" d="M77.763,259.502v1.609c-0.004,1.434-0.947,2.866-2.83,3.96
						c-3.792,2.203-9.957,2.203-13.781-0.004c-1.921-1.109-2.88-2.564-2.876-4.017v-1.609c-0.004,1.453,0.955,2.908,2.875,4.017
						c3.824,2.208,9.99,2.208,13.781,0.004C76.816,262.367,77.759,260.936,77.763,259.502z"/>
				</g>
				<g>
					<path style="fill:#737373;" d="M74.881,255.479c3.824,2.208,3.844,5.779,0.052,7.983c-3.792,2.203-9.957,2.203-13.781-0.004
						c-3.816-2.203-3.837-5.775-0.045-7.978C64.899,253.275,71.065,253.275,74.881,255.479z"/>
				</g>
				<g>
					<path style="fill:#262626;" d="M70.85,257.794c1.577,0.911,1.585,2.383,0.021,3.292c-1.564,0.909-4.106,0.909-5.683-0.002
						c-1.574-0.909-1.582-2.382-0.019-3.29C66.733,256.886,69.276,256.885,70.85,257.794z"/>
				</g>
				<path style="fill:#262626;" d="M77.761,259.506v1.609c0,1.431-0.947,2.861-2.832,3.953c-1.904,1.111-4.408,1.662-6.911,1.653
					v-1.609c2.503,0.01,5.007-0.541,6.911-1.653C76.814,262.367,77.761,260.937,77.761,259.506z"/>
			</g>
			<g>
				<g style="enable-background:new    ;">
					<g>
						<path style="fill:#404040;" d="M71.605,182.764v76.545c-0.002,0.528-0.349,1.054-1.041,1.457
							c-1.395,0.811-3.664,0.811-5.071-0.002c-0.707-0.408-1.06-0.943-1.058-1.478v-76.545c-0.002,0.535,0.351,1.07,1.058,1.478
							c1.407,0.813,3.675,0.813,5.071,0.002C71.256,183.818,71.603,183.291,71.605,182.764z"/>
					</g>
					<path style="fill:#262626;" d="M71.602,182.764v76.541c0,0.529-0.342,1.059-1.043,1.458c-0.7,0.407-1.621,0.611-2.541,0.611
						v-76.55c0.92,0.008,1.841-0.195,2.541-0.603C71.26,183.815,71.602,183.294,71.602,182.764z"/>
					<g>
						<path style="fill:#737373;" d="M70.544,181.283c1.407,0.812,1.414,2.126,0.019,2.937c-1.395,0.811-3.664,0.811-5.071-0.002
							c-1.404-0.811-1.412-2.125-0.017-2.935C66.872,180.473,69.14,180.473,70.544,181.283z"/>
					</g>
				</g>
			</g>
			<g>
				<g style="enable-background:new    ;">
					<g>
						<path style="fill:#404040;" d="M70.639,178.342v3.922c-0.001,0.386-0.255,0.771-0.761,1.065
							c-1.019,0.592-2.677,0.592-3.705-0.001c-0.516-0.298-0.774-0.689-0.773-1.08v-3.922c-0.001,0.391,0.257,0.782,0.773,1.08
							c1.028,0.594,2.686,0.594,3.705,0.001C70.385,179.112,70.638,178.727,70.639,178.342z"/>
					</g>
					<g>
						<path style="fill:#737373;" d="M69.865,177.26c1.028,0.594,1.034,1.554,0.014,2.146c-1.019,0.592-2.677,0.592-3.705-0.001
							c-1.026-0.592-1.032-1.552-0.012-2.145C67.181,176.668,68.839,176.668,69.865,177.26z"/>
					</g>
				</g>
			</g>
			<path style="fill:#262626;" d="M70.641,178.342v3.926c0,0.383-0.253,0.766-0.766,1.059c-0.513,0.301-1.181,0.448-1.857,0.448
				v-3.926c0.676,0,1.344-0.146,1.857-0.44C70.389,179.116,70.641,178.725,70.641,178.342z"/>
		</g>
		<g>
			<g>
				<g style="enable-background:new    ;">
					<path style="fill:#D9D9D9;" d="M174.505,256.971l-0.057,20.01c-0.003,0.88-0.313,1.498-0.814,1.789l4.403-2.559
						c0.501-0.291,0.811-0.909,0.814-1.789l0.057-20.01L174.505,256.971z"/>
					<path style="fill:#F2F2F2;" d="M176.12,249.581L60.147,182.624c-0.777-0.449-1.482-0.49-1.99-0.194l-4.403,2.559
						c0.509-0.296,1.214-0.254,1.991,0.194l115.973,66.957c1.544,0.891,2.794,3.056,2.789,4.83l4.403-2.559
						C178.914,252.637,177.664,250.473,176.12,249.581z"/>
					<g>
						<path style="fill:#E6E6E6;" d="M171.717,252.141c1.544,0.891,2.794,3.056,2.789,4.83l-0.057,20.01
							c-0.005,1.775-1.263,2.485-2.807,1.593L55.668,211.617c-1.544-0.892-2.794-3.049-2.789-4.824l0.057-20.01
							c0.005-1.774,1.263-2.491,2.807-1.6L171.717,252.141z"/>
					</g>
				</g>
			</g>
			<g>
				<g>
					<polygon style="fill:#FF3D44;" points="73.183,195.252 52.879,206.132 52.915,193.958 62.259,188.951 					"/>
					<polygon style="fill:#FF3D44;" points="92.935,206.658 69.149,219.403 58.243,213.102 82.028,200.357 					"/>
					<polygon style="fill:#FF3D44;" points="112.695,218.065 88.909,230.81 78.003,224.509 101.788,211.764 					"/>
					<polygon style="fill:#FF3D44;" points="132.455,229.471 108.67,242.225 97.754,235.915 121.54,223.17 					"/>
					<polygon style="fill:#FF3D44;" points="152.215,240.877 128.43,253.631 117.514,247.321 141.3,234.576 					"/>
					<path style="fill:#FF3D44;" d="M171.957,252.292l-23.768,12.745l-10.915-6.301l23.785-12.745l10.657,6.149
						C171.797,252.185,171.877,252.239,171.957,252.292z"/>
					<polygon style="fill:#FF3D44;" points="174.492,260.789 174.456,272.945 167.941,276.444 157.044,270.143 					"/>
				</g>
			</g>
			<g>
				<polygon style="fill:#FF999D;" points="77.637,192.717 73.201,195.261 62.259,188.951 66.677,186.398 				"/>
				<polygon style="fill:#FF999D;" points="97.388,204.124 92.961,206.667 82.01,200.348 86.428,197.796 				"/>
				<polygon style="fill:#FF999D;" points="117.139,215.53 112.713,218.074 101.762,211.755 106.18,209.202 				"/>
				<polygon style="fill:#FF999D;" points="136.891,226.936 132.464,229.48 121.513,223.161 125.94,220.608 				"/>
				<polygon style="fill:#FF999D;" points="156.642,238.334 152.206,240.877 141.264,234.558 145.682,232.006 				"/>
				<path style="fill:#FF999D;" d="M176.384,249.749l-4.436,2.544c-0.08-0.053-0.152-0.107-0.232-0.152l-10.692-6.176l4.418-2.553
					l10.674,6.167C176.206,249.633,176.295,249.686,176.384,249.749z"/>
			</g>
			<polygon style="fill:#CC0007;" points="178.901,258.263 178.857,270.455 174.456,272.99 174.492,260.807 			"/>
		</g>
		<g>
			<polygon style="fill:#E6C1C2;" points="141.265,244.119 132.733,256.106 98.987,236.622 90.544,214.836 95.363,208.062 
				136.499,231.812 			"/>
		</g>
		<polygon style="fill:#E6C1C2;" points="140.917,229.259 136.499,231.812 119.988,222.28 124.406,219.727 		"/>
		<g>
			<g>
				<g style="enable-background:new    ;">
					<g>
						<polygon style="fill:#FF9000;" points="133.652,246.757 138.187,244.122 125.435,262.035 120.9,264.671 						"/>
					</g>
					<g>
						<polygon style="fill:#FFAE00;" points="121.043,214.202 125.578,211.567 138.187,244.122 133.652,246.757 						"/>
					</g>
					<g>
						<polygon style="fill:#FFED29;" points="95.682,199.56 100.217,196.925 125.578,211.567 121.043,214.202 						"/>
					</g>
					<g>
						<polygon style="fill:#FFCC00;" points="121.043,214.202 133.652,246.757 120.9,264.671 95.539,250.028 82.935,217.476 
							95.682,199.56 						"/>
					</g>
					<polygon style="fill:#FFF480;" points="120.9,263.732 95.539,249.09 83.17,217.145 82.935,217.476 95.539,250.028 
						120.9,264.671 133.652,246.757 133.417,246.15 					"/>
				</g>
			</g>
			<path style="fill:#404040;" d="M131.654,245.837c0,1.03-0.728,1.445-1.625,0.927c-0.898-0.518-1.625-1.773-1.625-2.803
				c0-1.03,0.728-1.445,1.625-0.927C130.927,243.552,131.654,244.807,131.654,245.837z"/>
			<path style="fill:#404040;" d="M88.096,220.681c0,1.03-0.728,1.445-1.625,0.927c-0.898-0.518-1.625-1.773-1.625-2.803
				c0-1.03,0.728-1.445,1.625-0.927C87.368,218.396,88.096,219.651,88.096,220.681z"/>
			<g>
				<path d="M96.45,227.35l0.767,1.857c-0.391,0.075-0.817,0.064-1.277-0.029c-0.457-0.094-0.901-0.264-1.329-0.514
					c-0.822-0.472-1.538-1.081-2.151-1.824c-0.613-0.743-1.085-1.553-1.419-2.428c-0.334-0.877-0.501-1.745-0.501-2.604
					c0-0.835,0.183-1.49,0.545-1.971c0.362-0.479,0.859-0.741,1.492-0.778c0.631-0.04,1.32,0.158,2.07,0.591
					c0.965,0.558,1.771,1.347,2.421,2.371c0.646,1.022,1.09,2.184,1.329,3.483l-5.858-1.026c0.215,0.547,0.503,1.046,0.866,1.494
					c0.365,0.448,0.778,0.806,1.241,1.074C95.266,227.402,95.866,227.505,96.45,227.35z M92.845,220.947
					c-0.442,0.29-0.661,0.859-0.661,1.705c0,0.207,0.007,0.367,0.018,0.483l4.302,0.661c-0.178-0.569-0.431-1.09-0.758-1.567
					c-0.327-0.475-0.734-0.852-1.222-1.134C93.845,220.703,93.284,220.652,92.845,220.947z"/>
				<path d="M102.886,225.534c0.352-0.152,0.723-0.211,1.116-0.176c0.393,0.035,0.738,0.134,1.037,0.29l-0.073,1.866
					c-0.536-0.336-1.022-0.494-1.455-0.473c-0.435,0.022-0.776,0.206-1.017,0.549c-0.244,0.345-0.367,0.791-0.367,1.336v3.874
					l-1.661-0.96v-8.482l1.483,0.857l0.123,2.079C102.264,225.939,102.537,225.688,102.886,225.534z"/>
				<path d="M109.599,229.411c0.354-0.152,0.723-0.211,1.118-0.176c0.391,0.035,0.738,0.134,1.035,0.29l-0.073,1.865
					c-0.534-0.336-1.02-0.494-1.455-0.473c-0.435,0.022-0.773,0.207-1.017,0.549c-0.244,0.345-0.365,0.791-0.365,1.336v3.874
					l-1.661-0.96v-8.481l1.481,0.857l0.125,2.079C108.977,229.815,109.249,229.564,109.599,229.411z"/>
				<path d="M113.457,232.733c0.349-0.488,0.839-0.747,1.463-0.782c0.626-0.035,1.329,0.171,2.116,0.626
					c0.784,0.455,1.483,1.055,2.098,1.806c0.613,0.749,1.088,1.565,1.428,2.441c0.34,0.881,0.51,1.745,0.51,2.591
					c0,0.846-0.169,1.518-0.51,2.01c-0.341,0.494-0.82,0.76-1.437,0.8c-0.62,0.037-1.329-0.174-2.127-0.633
					c-0.771-0.448-1.468-1.037-2.087-1.771c-0.62-0.732-1.105-1.542-1.455-2.426c-0.352-0.888-0.527-1.78-0.527-2.683
					C112.93,233.88,113.106,233.22,113.457,232.733z M114.921,237.358c0.209,0.571,0.494,1.092,0.857,1.562
					c0.362,0.466,0.765,0.831,1.206,1.083c0.69,0.398,1.261,0.448,1.714,0.149c0.45-0.299,0.677-0.863,0.677-1.699
					c0-0.833-0.226-1.663-0.677-2.492c-0.453-0.826-1.024-1.441-1.714-1.839c-0.455-0.261-0.857-0.36-1.215-0.301
					c-0.358,0.059-0.639,0.255-0.848,0.585c-0.209,0.332-0.312,0.762-0.312,1.297C114.609,236.235,114.712,236.789,114.921,237.358z
					"/>
				<path d="M125.72,238.718c0.354-0.152,0.723-0.211,1.118-0.176c0.391,0.035,0.738,0.134,1.035,0.29l-0.073,1.865
					c-0.534-0.336-1.02-0.494-1.455-0.473c-0.435,0.022-0.774,0.206-1.018,0.549c-0.244,0.345-0.365,0.791-0.365,1.336v3.874
					l-1.661-0.96v-8.481l1.481,0.857l0.125,2.079C125.098,239.122,125.371,238.872,125.72,238.718z"/>
			</g>
		</g>
	</g>
	<g>
		<path style="fill:#F2F2F2;" d="M225.105,387.944l-23.769-13.694c-0.795-0.459-1.996-0.508-2.684-0.111l-9.436,5.426
			l-82.041-47.245l10.225-5.88c0.688-0.397,0.602-1.091-0.193-1.549l-23.769-13.694c-0.794-0.459-1.996-0.508-2.684-0.111
			l-27.502,15.815c-0.688,0.397-0.602,1.091,0.193,1.549l23.769,13.694c0.794,0.459,1.996,0.508,2.684,0.111l4.1-2.358l82.04,47.245
			l-4.889,2.812c-0.688,0.397-0.602,1.091,0.193,1.549l23.769,13.694c0.794,0.459,1.996,0.508,2.684,0.111l27.502-15.815
			C225.986,389.096,225.899,388.402,225.105,387.944z"/>
		<g>
			<g style="enable-background:new    ;">
				<path style="fill:#C2C3C7;" d="M95.31,313.313c-0.195-0.113-0.405-0.218-0.63-0.315l-12.139-5.232l-0.023,7.979l12.139,5.232
					c0.224,0.097,0.435,0.202,0.63,0.315c1.079,0.623,1.698,1.471,1.695,2.464l0.023-7.979
					C97.008,314.784,96.389,313.936,95.31,313.313z"/>
				<path style="fill:#808080;" d="M93.874,330.648c-6.625,0-11.39-1.502-14.788-3.464c-6.393-3.691-7.87-8.743-7.947-9.009
					l-0.023,7.979c0.077,0.266,1.554,5.318,7.947,9.009c3.398,1.962,8.163,3.464,14.788,3.464c2.894,0,5.663,0.702,7.716,1.888
					l0.023-7.979C99.537,331.351,96.769,330.648,93.874,330.648z"/>
				<g>
					<polygon style="fill:#C7C7C7;" points="171.962,373.165 171.94,381.145 101.568,340.515 101.59,332.536 					"/>
				</g>
				<path style="fill:#808080;" d="M205.169,376.74c-1.191-0.688-2.852-1.048-4.556-0.971c-3.952,0.18-7.445,1.057-10.183,2.504
					c-1.248,0.658-1.918,1.572-1.921,2.502l-0.023,7.979c0.003-0.93,0.673-1.843,1.921-2.502c2.738-1.446,6.231-2.323,10.183-2.504
					c1.704-0.076,3.365,0.284,4.556,0.971c0.195,0.113,0.377,0.234,0.545,0.364l0.022-7.979
					C205.547,376.974,205.364,376.853,205.169,376.74z"/>
				<g>
					<polygon style="fill:#C7C7C7;" points="214.787,384.118 214.764,392.097 205.692,385.083 205.715,377.104 					"/>
				</g>
				<path style="fill:#808080;" d="M216.957,380.562c-0.514,2.237-2.087,3.49-2.17,3.556l-0.023,7.979
					c0.083-0.066,1.655-1.318,2.17-3.556c0.097-0.421,0.145-0.84,0.146-1.253l0.023-7.979
					C217.101,379.722,217.054,380.141,216.957,380.562z"/>
				<g>
					<path style="fill:#DEDEDE;" d="M190.43,378.272c-1.964,1.035-2.496,2.703-1.252,4.069l7.676,8.416
						c-0.459-0.044-9.186-0.882-15.58-4.574c-3.398-1.962-6.007-4.717-6.029-8.555c-0.009-1.676-1.231-3.278-3.284-4.463
						l-70.372-40.629c-2.053-1.185-4.822-1.887-7.716-1.887c-6.625,0-11.39-1.502-14.788-3.464c-6.393-3.691-7.87-8.744-7.947-9.01
						l14.554,4.419c2.362,0.716,5.245,0.405,7.026-0.736c2.483-1.593,3.986-3.62,4.266-5.765c0.149-1.129-0.481-2.092-1.673-2.78
						c-0.195-0.113-0.405-0.218-0.63-0.315l-12.139-5.232c0.114-0.048,2.275-0.96,6.131-1.268c5.391-0.427,10.523,0.714,14.135,2.8
						c2.595,1.498,4.406,3.484,4.965,5.727l1.589,6.395c0.343,1.388,1.457,2.673,3.174,3.664l72.257,41.717
						c1.716,0.991,3.939,1.632,6.336,1.826l11.05,0.902c3.872,0.316,7.305,1.357,9.899,2.855c3.611,2.085,5.597,5.054,4.879,8.178
						c-0.514,2.237-2.087,3.49-2.17,3.556l-9.072-7.014c-0.168-0.13-0.35-0.251-0.545-0.364c-1.191-0.687-2.852-1.048-4.556-0.971
						C196.661,375.949,193.168,376.826,190.43,378.272z"/>
				</g>
				<polygon style="fill:#C7C7C7;" points="175.492,370.579 104.937,329.842 109.523,327.194 180.079,367.931 				"/>
				<polygon style="fill:#808080;" points="109.523,328.343 179.083,368.505 180.079,367.931 109.523,327.194 104.937,329.842 
					105.932,330.417 				"/>
				<g>
					<path style="fill:#808080;" d="M196.855,390.757l-0.023,7.979c-0.459-0.044-9.186-0.882-15.58-4.574
						c-3.398-1.962-6.007-4.718-6.029-8.555c-0.009-1.677-1.231-3.278-3.284-4.463l0.023-7.979c2.053,1.185,3.274,2.787,3.284,4.463
						c0.022,3.837,2.631,6.593,6.029,8.555C187.669,389.875,196.395,390.713,196.855,390.757z"/>
				</g>
			</g>
		</g>
	</g>
	<g>
		<path style="fill:#F2F2F2;" d="M358.577,418.27c-5.958,3.486-15.68,3.525-21.716,0.087c-6.035-3.438-6.099-9.051-0.141-12.537
			c5.958-3.486,15.68-3.525,21.716-0.087C364.472,409.171,364.535,414.784,358.577,418.27z"/>
		<g>
			<g>
				<path style="fill:#262626;" d="M359.994,309.673c0.963,1.746,1.604,3.705,1.677,5.689c0.027,0.735-0.554,1.352-1.286,1.412
					c-1.181,0.098-2.367,0.086-3.463-0.331c-0.611-0.232-1.17-0.582-1.723-0.93c-0.047-0.029-0.095-0.061-0.121-0.109
					c-0.029-0.055-0.022-0.122-0.013-0.184c0.059-0.418,0.175-0.826,0.273-1.237c0.421-1.771,0.505-3.601,0.712-5.409
					c0.076-0.667,0.372-1.777,1.286-1.608c0.338,0.063,0.699,0.379,0.966,0.581c0.341,0.259,0.639,0.572,0.903,0.908
					C359.503,308.837,359.76,309.25,359.994,309.673z"/>
				<path style="fill:#FFB78C;" d="M331.575,331.763c0.912,0.081,1.823-0.098,2.73-0.223c0.849-0.117,1.734-0.197,2.473-0.631
					c0.479-0.281,0.865-0.695,1.205-1.133c0.608-0.782,1.092-1.659,1.429-2.59c0.148-0.408,0.268-0.828,0.314-1.259
					c0.018-0.17,0.023-0.349-0.053-0.503c-0.077-0.159-0.228-0.267-0.38-0.357c-1.223-0.724-2.763-0.627-4.147-0.302
					c-1.255,0.295-2.47,0.76-3.601,1.378c-0.776,0.423-1.532,0.938-2.023,1.673c-0.499,0.747-0.645,1.792-0.307,2.641
					C329.553,331.306,330.755,331.689,331.575,331.763z"/>
				<path style="fill:#FF999D;" d="M343.354,316.948c-0.883,0.144-1.857,0.367-2.473,0.849c-0.925,0.725-1.874,1.435-2.781,2.189
					c-1.909,1.587-3.699,3.309-5.485,5.03c-0.099,0.095-0.2,0.194-0.255,0.32c-0.06,0.139-0.057,0.296-0.048,0.448
					c0.098,1.606,0.743,3.135,1.573,4.514c0.305,0.506,0.642,1.003,1.092,1.385c0.473,0.401,1.051,0.659,1.634,0.869
					c0.77,0.278,1.578,0.487,2.397,0.476c-0.056-1.01,0.236-2.005,0.569-2.96c0.739-2.119,1.698-4.162,2.858-6.084
					c0.783-1.297,1.66-2.547,2.249-3.943c0.242-0.572,0.431-1.169,0.539-1.782c0.017-0.094,0.158-1.566-0.075-1.547
					c-0.299,0.025-0.598,0.06-0.896,0.103C343.979,316.854,343.672,316.896,343.354,316.948z"/>
				<path style="fill:#FFAA00;" d="M349.309,403.067c-0.178-0.321-0.376-0.605-0.578-0.83c0.004,0.125,0.007,0.254-0.042,0.369
					c-0.155,0.367-0.446,0.043-0.663-0.075c-0.263-0.143-0.538-0.262-0.816-0.37c-0.167-0.065-1.391-0.676-1.145-0.935
					c-1.403,1.47-2.999,2.742-4.492,4.122c-1.492,1.38-2.902,2.897-3.819,4.712c-0.308,0.61-0.525,1.357-0.467,2.044
					c0.022,0.264,0.097,0.657,0.292,0.85c0.293,0.29,0.855,0.391,1.247,0.415c0.494,0.031,0.989-0.055,1.467-0.179
					c1.341-0.347,2.594-0.986,3.73-1.779c1.136-0.792,2.159-1.736,3.125-2.728c0.259-0.266,0.507-0.55,0.878-0.618
					c0.4-0.074,0.801-0.267,1.135-0.5C350.503,406.628,350.097,404.486,349.309,403.067z"/>
				<path style="fill:#333333;" d="M350.032,390.653c-0.046-3.427-0.092-6.853-0.138-10.28c-0.002-0.141-0.005-0.289-0.073-0.413
					c-0.041-0.075-0.104-0.136-0.165-0.196c-0.571-0.557-1.142-1.113-1.713-1.67c-1.151-7.914-1.988-15.874-2.468-23.856
					c-0.174-2.901-0.372-6-2.128-8.316c-0.373-0.492-0.971-0.606-1.43-0.971c-0.213-0.17-0.279-0.293-0.569-0.368
					c-0.314-0.081-0.645-0.049-0.947-0.184c-0.327-0.146-0.549-0.45-0.757-0.741c-1.059,1.654-2.1,3.353-2.644,5.24
					c-0.465,1.611-0.55,3.305-0.577,4.982c-0.072,4.485,0.355,8.939,0.827,13.393c0.429,4.074,0.951,8.094,1.822,12.109
					c0.313,1.442,3.024,13.195,3.579,15.636c0.28,1.233,1.271,6.319,1.53,7.62c0.032,0.162,0.067,0.329,0.158,0.466
					c0.115,0.172,0.304,0.277,0.492,0.366c0.987,0.464,2.116,0.623,3.193,0.448c0.368-0.06,0.735-0.16,1.049-0.359
					c0.08-0.051,0.158-0.11,0.203-0.193c0.035-0.065,0.047-0.14,0.058-0.213C349.475,402.193,350.062,392.882,350.032,390.653z"/>
				<path style="fill:#FFEA00;" d="M346.689,414.694c-0.188,0.3-0.374,0.602-0.559,0.904c-0.179,0.292-0.358,0.589-0.456,0.917
					c-0.255,0.855,0.232,1.383,0.984,1.698c1.538,0.643,3.311,0.392,4.887-0.151c0.873-0.301,1.737-0.701,2.383-1.359
					c0.872-0.888,1.207-2.092,1.557-3.244c0.335-1.102,1.21-1.905,1.777-2.88c0.329-0.566,0.393-1.256,0.304-1.905
					c-0.118-0.86-0.502-1.692-1.13-2.291c-0.628-0.599-1.504-0.949-2.369-0.878c-0.756,0.061-1.395,0.455-1.905,0.999
					c-0.272,0.29-0.454,0.646-0.637,0.995C351.333,407.863,347.499,413.395,346.689,414.694z"/>
				<path style="fill:#595959;" d="M359.31,349.304c-0.498-1.353-1.172-2.822-2.061-3.962c-0.444,0.757-0.33,1.286-1.204,1.701
					c-0.99,0.469-2.137,0.567-3.217,0.568c-1.814,0.002-3.61-0.286-5.405-0.519c-0.611-0.079-1.294-0.067-1.891-0.212
					c-0.422-0.102-0.725-0.3-1.16-0.017c-0.305,0.198-0.554,0.496-0.9,0.606c-0.638,0.202-1.264-0.302-1.745-0.769
					c-0.791,1.505-0.898,3.266-0.933,4.966c-0.029,1.431-0.018,2.876,0.288,4.275c0.305,1.398,0.927,2.761,1.965,3.747
					c0.108,0.102,0.221,0.202,0.306,0.324c0.096,0.137,0.152,0.297,0.207,0.455c0.34,0.987,5.076,24.053,5.178,24.607
					c0.276,1.506,0.639,2.993,0.975,4.486c0.106,0.469,0.208,0.939,0.306,1.41c0.403,1.958,0.701,3.937,0.952,5.92
					c0.184,1.449,0.3,2.908,0.42,4.364c0.148,1.799,0.254,3.603,0.398,5.401c0.016,0.206-0.045,0.461,0.062,0.64
					c0.106,0.177,0.368,0.322,0.543,0.418c0.411,0.226,0.878,0.338,1.337,0.413c0.586,0.096,1.185,0.142,1.772,0.058
					c0.587-0.084,1.165-0.304,1.612-0.695c0.044-0.038,0.087-0.079,0.111-0.132c0.026-0.056,0.026-0.12,0.027-0.182
					c0.003-0.38,0.612-6.436,0.906-8.53c0.259-1.846,0.724-3.507,0.717-5.41c-0.006-1.674,0.131-3.758-0.383-5.349
					c-0.555-1.721-0.973-3.202-0.873-5.049c0.1-1.85,0.525-3.663,0.891-5.479c1.322-6.563,1.631-13.153,1.857-19.814
					C360.464,354.765,360.277,351.933,359.31,349.304z"/>
				<path style="fill:#FF3D44;" d="M342.7,317.002c-0.413,0.098-0.835,0.211-1.177,0.463c-0.394,0.29-0.64,0.735-0.859,1.173
					c-2.888,5.749-3.366,12.568-2.309,18.829c0.218,1.29,0.747,2.573,0.669,3.878c-0.083,1.396-0.537,2.743-1.044,4.035
					c-0.41,1.045-0.905,2.142-0.927,3.285c-0.017,0.878,0.886,1.525,1.495,2.073c0.74,0.666,1.585,1.209,2.465,1.669
					c5.284,2.762,11.767,2.717,17.356,0.64c0.482-0.179,0.972-0.382,1.336-0.745c0.916-0.916,0.007-2.29-0.279-3.31
					c-0.34-1.217-0.679-2.723-0.336-3.975c0.368-1.34,1.007-2.661,1.509-3.956c1.028-2.652,2.073-5.298,3.046-7.971
					c1.058-2.908,2.031-5.85,2.798-8.85c0.151-0.593,0.286-1.255-0.014-1.788c-0.163-0.289-0.435-0.499-0.699-0.699
					c-2.016-1.526-4.063-3.011-6.141-4.453c-1.953-1.355-4.022-2.708-6.377-3.033c-0.267-0.037-0.543-0.059-0.8,0.019
					c-0.779,0.235-1.102,1.142-1.709,1.612c-0.547,0.424-1.061,0.377-1.725,0.376C346.867,316.268,344.755,316.515,342.7,317.002z"
					/>
				<path style="fill:#FFB78C;" d="M348.931,318.338c-0.093,0.466-0.245,0.994-0.495,1.401c-0.236,0.383-0.232,0.671,0.111,1.037
					c0.218,0.233,0.512,0.383,0.814,0.487c0.747,0.259,1.566,0.261,2.344,0.118c0.778-0.144,1.522-0.428,2.253-0.733
					c1.438-0.6,2.875-1.311,3.933-2.454c0.206-0.223,0.404-0.479,0.435-0.78c0.052-0.507-0.37-0.726-0.679-1.03
					c-0.238-0.233-0.418-0.521-0.584-0.807c-0.865-1.486-1.572-3.066-2.102-4.702c-0.16,1.22-1.247,2.15-2.419,2.522
					c-1.173,0.372-2.433,0.299-3.662,0.256c-0.159-0.006-0.331-0.007-0.463,0.082c-0.24,0.163-0.218,0.518-0.16,0.802
					C348.509,315.804,349.193,317.023,348.931,318.338z"/>
				<path style="fill:#FFB78C;" d="M346.698,312.493c-0.161-1.647,0.009-3.307-0.052-4.96c-0.015-0.419-0.046-0.843-0.18-1.241
					c-0.168-0.501-0.48-0.89-0.98-1.064c-0.529-0.184-0.476-0.664-0.402-1.177c-0.92,1.159-1.612,2.496-2.041,3.912
					c-0.214,0.708-0.364,1.436-0.443,2.171c-0.08,0.745-0.016,1.395,0.063,2.132c0.084,0.789,0.138,1.584,0.11,2.379
					c-0.03,0.849-0.7,1.354-1.287,1.889c-0.391,0.357-4.572,3.486-6.357,4.557c-1.885,1.131-3.914,2.199-5.172,4.001
					c-0.468,0.671-0.812,1.423-1.074,2.198c-0.376,1.111-0.554,2.444,0.169,3.366c0.569,0.727,1.57,0.996,2.491,0.937
					c1.461-0.093,2.801-0.889,3.855-1.905c1.054-1.016,1.867-2.248,2.717-3.439c2.054-2.877,4.369-5.565,6.873-8.061
					c0.397-0.396,0.825-0.854,0.904-1.389c0.159-0.058,0.311-0.139,0.431-0.256c0.326-0.318,0.475-0.778,0.537-1.229
					C346.989,314.377,346.79,313.433,346.698,312.493z"/>
				<path style="fill:#FFE5CC;" d="M343.958,307.974c-0.03,0.796-0.002,1.593,0.09,2.385c0.184,1.592,0.628,3.157,1.334,4.597
					c0.352,0.718,0.769,1.404,1.25,2.043c0.488,0.648,1.314,0.551,2.037,0.368c1.972-0.498,3.757-1.552,5.443-2.691
					c0.27-0.183,0.552-0.383,0.683-0.682c0.118-0.27,0.094-0.579,0.152-0.868c0.097-0.481,0.327-0.513,0.72-0.557
					c0.455-0.051,0.93-0.347,1.283-0.628c0.842-0.669,1.297-1.715,1.57-2.755c0.576-2.194,0.471-4.561-0.295-6.697
					c-0.26-0.723-0.602-1.432-1.13-1.991c-1.517-1.603-4.028-2.006-6.127-1.656c-1.304,0.217-2.552,0.745-3.597,1.557
					c-0.259,0.201-0.505,0.418-0.736,0.651c-0.207,0.208-0.358,0.507-0.555,0.7c-0.19,0.186-0.484,0.112-0.705,0.295
					c-0.221,0.183-0.34,0.485-0.431,0.749C344.373,304.464,344.024,306.215,343.958,307.974z"/>
				<path style="fill:#262626;" d="M346.901,303.165c0.147-0.05,0.286-0.12,0.412-0.221c-0.252,0.203-0.268,0.742-0.116,1.003
					c0.221,0.378,0.781,0.607,1.156,0.784c1.153,0.547,2.337,1.026,3.474,1.606c0.714,0.364,1.446,0.808,1.805,1.525
					c0.304,0.609,0.292,1.322,0.461,1.981c0.169,0.659,0.654,1.347,1.335,1.339c0.063-0.745,0.129-1.504,0.421-2.192
					c0.292-0.688,0.852-1.306,1.582-1.468c0.111-0.025,0.234-0.037,0.332,0.021c0.09,0.053,0.14,0.154,0.181,0.25
					c0.406,0.948,0.792,2.581-0.217,3.321c0.768-0.564,1.29-1.419,1.574-2.329c0.284-0.91,0.345-1.875,0.321-2.828
					c-0.026-1.036-0.152-2.079-0.51-3.052c-0.456-1.242-1.292-2.342-2.366-3.116c-1.886-1.358-4.403-1.64-6.671-1.133
					c-0.754,0.169-1.492,0.42-2.173,0.785c-0.784,0.421-1.481,0.998-2.051,1.68c-0.554,0.663-1.08,1.471-1.292,2.31
					c-0.102,0.404-0.169,0.818-0.199,1.234c0.096-0.233,0.193-0.467,0.329-0.679c0.194-0.305,0.47-0.563,0.832-0.624
					C345.977,303.287,346.456,303.316,346.901,303.165z"/>
				<path style="fill:#FF999D;" d="M362.779,322.766c-3.797,1.538-7.172,3.988-10.143,6.809c-0.112,0.107-0.226,0.216-0.297,0.355
					c-0.096,0.187-0.102,0.406-0.102,0.617c0.003,1.826,0.372,3.65,1.079,5.333c0.394,0.938,0.904,1.847,1.647,2.541
					c0.968,0.903,2.266,1.378,3.568,1.613c0.153,0.028,0.312,0.052,0.463,0.013c0.164-0.043,0.298-0.156,0.425-0.267
					c2.13-1.874,3.703-4.292,5.116-6.752c0.774-1.348,1.513-2.729,1.973-4.214c0.44-1.418,0.617-2.921,0.475-4.398
					c-0.069-0.715-0.159-1.548-0.647-2.102c-0.542-0.614-1.167-0.323-1.844-0.139C363.908,322.333,363.339,322.54,362.779,322.766z"
					/>
				<path style="fill:#CC0007;" d="M356.059,339.494c0.701,0.436,3.662,1.39,3.364-0.309c-0.115-0.655-0.434-1.311-0.713-1.908
					c-0.93-1.989-1.864-3.984-3.048-5.833c-0.5-0.782-1.113-1.586-2.006-1.839c-0.282-0.08-0.587-0.099-0.867-0.013
					c-0.763,0.233-0.908,1.086-0.94,1.772c-0.058,1.236,0.231,2.468,0.68,3.62c0.341,0.877,0.772,1.715,1.226,2.538
					c0.345,0.626,0.899,1.033,1.478,1.428C355.503,339.134,355.778,339.319,356.059,339.494z"/>
				<path style="fill:#FFB78C;" d="M358.101,335.984c-1.215,0.801-2.481,1.499-3.869,1.904c-0.06,0.017-0.129,0.035-0.189,0.052
					c-0.741,0.207-1.517,0.328-2.283,0.345c-0.612,0.017-1.241-0.043-1.801-0.293c-0.827-0.379-1.491-1.387-1.404-2.3
					c0.06-0.655,0.319-1.293,0.732-1.801c0.31-0.379,0.689-0.689,1.077-0.982c0.482-0.362,0.974-0.698,1.482-1.008
					c0.353-0.224,0.706-0.439,1.068-0.638c0.621-0.345,1.267-0.663,1.93-0.905c0.31,0.327,0.577,0.707,0.818,1.086
					C356.585,332.891,357.36,334.433,358.101,335.984z"/>
				<path style="fill:#FFB78C;" d="M356.983,311.713c-0.119-0.03-0.246-0.006-0.362,0.034c-0.456,0.157-0.798,0.558-0.981,1.005
					c0.027-0.167,0.034-0.358,0.092-0.517c0.042-0.116,0.106-0.211,0.138-0.333c0.093-0.354,0.18-0.711,0.259-1.069
					c0.159-0.712,0.287-1.431,0.354-2.158c0.078-0.849,0.069-1.708-0.074-2.551c-0.034-0.204-0.079-0.411-0.192-0.584
					c-0.113-0.173-0.31-0.305-0.516-0.286c-0.044-0.272-0.091-0.553-0.241-0.784c-0.15-0.231-0.432-0.4-0.699-0.331
					c-0.24,0.062-0.402,0.3-0.445,0.544c-0.41,0.067-0.747,0.378-0.95,0.741c-0.203,0.363-0.292,0.776-0.378,1.182
					c-0.282-0.054-0.573,0.084-0.774,0.287c-0.202,0.203-0.331,0.466-0.457,0.724c-0.499,1.021-1,2.044-1.402,3.108
					c-0.386,1.019-0.68,2.07-0.974,3.119c-0.376,1.343-0.808,2.626-0.92,4.019c-0.111,1.387-0.123,2.781-0.279,4.164
					c-0.098,0.868-0.195,1.736-0.276,2.606c-0.101,1.088-0.12,7.881-0.047,8.651c0.107,1.144,0.346,2.284,0.812,3.335
					c0.301,0.678,0.707,1.282,1.518,1.301c0.553,0.013,1.082-0.231,1.548-0.531c1.366-0.876,2.362-2.251,3.003-3.742
					c0.259-0.604,0.429-1.209,0.433-1.869c0.004-0.649-0.256-1.291-0.437-1.911c-0.542-1.866-0.845-3.789-1.101-5.712
					c-0.13-0.975-0.249-1.952-0.382-2.927c-0.066-0.487-0.137-0.974-0.214-1.459c-0.113-0.711-0.087-1.502,0.156-2.184
					c0.26-0.73,0.815-1.174,1.431-1.583c0.222-0.147,0.416-0.334,0.6-0.528c0.334-0.351,0.638-0.73,0.911-1.131
					c0.171-0.253,0.333-0.523,0.382-0.824c0.026-0.157,0.02-0.319,0.061-0.472c0.077-0.29,0.308-0.509,0.501-0.739
					c0.085-0.1,0.168-0.221,0.149-0.351C357.211,311.837,357.102,311.743,356.983,311.713z"/>
			</g>
		</g>
	</g>
	<g>
		<path style="fill:#F2F2F2;" d="M289.402,402.223l-103.596-59.812c-1.346-0.777-1.177-2.134,0.377-3.031l23.868-13.605
			c1.554-0.897,3.905-0.994,5.25-0.218l103.597,59.811c1.346,0.777,1.177,2.134-0.377,3.031l-23.868,13.605
			C293.099,402.903,290.748,403,289.402,402.223z"/>
		<g>
			<g style="enable-background:new    ;">
				<g>
					<polygon style="fill:#262626;" points="313.851,378.543 313.834,384.703 290.541,398.239 290.559,392.08 					"/>
				</g>
				<g>
					<polygon style="fill:#404040;" points="290.559,392.08 290.541,398.239 193.367,342.409 193.384,336.25 					"/>
				</g>
				<g>
					<polygon style="fill:#737373;" points="313.851,378.543 290.559,392.08 193.384,336.25 216.677,322.714 					"/>
				</g>
				<polygon style="fill:#404040;" points="313.846,378.547 302.437,385.177 289.875,385.177 289.875,364.776 				"/>
			</g>
		</g>
		<g>
			<g style="enable-background:new    ;">
				<g>
					<path style="fill:#FFAA00;" d="M298.96,380.273l-8.261,4.801c0.772-0.449,1.034-1.734,0.413-3.333l8.261-4.801
						C299.994,378.539,299.732,379.824,298.96,380.273z"/>
				</g>
				<g>
					<path style="fill:#FFAA00;" d="M246.742,274.653l8.261-4.801c0.498-0.29,1.161-0.195,1.823,0.186l-8.261,4.801
						C247.903,274.458,247.24,274.364,246.742,274.653z"/>
				</g>
				<g>
					<polygon style="fill:#FFAA00;" points="250.779,277.596 259.04,272.795 299.373,376.94 291.112,381.741 					"/>
				</g>
				<g>
					<path style="fill:#FFAA00;" d="M248.565,274.84l8.261-4.801c0.864,0.499,1.726,1.489,2.214,2.756l-8.261,4.801
						C250.291,276.329,249.429,275.339,248.565,274.84z"/>
				</g>
				<g>
					<path style="fill:#FFEA00;" d="M248.565,274.84c0.864,0.499,1.726,1.489,2.214,2.756l40.333,104.146
						c0.986,2.54-0.256,4.288-2.23,3.149l-81.124-46.837c-1.983-1.145-3.202-4.314-2.214-5.714l40.791-57.309
						C246.834,274.333,247.701,274.341,248.565,274.84z"/>
				</g>
				<g>
					<path style="fill:#FF3D44;" d="M248.543,279.952c0.784,0.453,1.565,1.351,2.008,2.5l36.586,94.47
						c0.894,2.304-0.232,3.89-2.022,2.856l-73.587-42.486c-1.799-1.039-2.904-3.913-2.008-5.183l37.001-51.984
						C246.973,279.492,247.759,279.499,248.543,279.952z"/>
				</g>
				<g>
					<path style="fill:#FFEA00;" d="M248.525,284.018c0.72,0.416,1.438,1.241,1.845,2.296l33.605,86.773
						c0.821,2.116-0.213,3.573-1.858,2.623l-67.592-39.024c-1.652-0.954-2.668-3.594-1.845-4.761l33.987-47.749
						C247.083,283.596,247.805,283.603,248.525,284.018z"/>
				</g>
			</g>
		</g>
		<g>
			<path d="M249.011,337.924l-2.634-1.521c-0.834-0.481-1.51-1.773-1.51-2.885V298.63c0-1.112,0.676-1.623,1.51-1.142l2.634,1.521
				c0.834,0.482,1.51,1.773,1.51,2.885v34.888C250.521,337.894,249.845,338.405,249.011,337.924z"/>
			<path d="M251.068,348.054c0,2.139-1.511,3-3.374,1.924c-1.864-1.076-3.374-3.682-3.374-5.821c0-2.138,1.511-3,3.374-1.924
				C249.557,343.31,251.068,345.916,251.068,348.054z"/>
		</g>
	</g>
	<g>
		<g>
			<g style="enable-background:new    ;">
				<g>
					<path style="fill:#6D64FF;" d="M388.18,339.456l-2.833,1.646c1.028,0.078,1.857-0.132,2.525-0.521l2.833-1.646
						C390.038,339.324,389.209,339.533,388.18,339.456z"/>
					<path style="fill:#6D64FF;" d="M395.783,344.091l2.833-1.646c0.994-0.577,1.928-1.545,2.732-3.044l-2.833,1.646
						C397.711,342.546,396.777,343.514,395.783,344.091z"/>
					<path style="fill:#6D64FF;" d="M416.79,321.654l-24.896-14.42c-1.254-0.724-2.393-0.791-3.215-0.313l-2.833,1.646
						c0.822-0.478,1.961-0.411,3.215,0.313l24.896,14.42c2.496,1.441,4.51,4.93,4.502,7.79l-0.037,16.305
						c-0.004,1.42-0.506,2.42-1.315,2.891l2.833-1.646c0.81-0.471,1.312-1.471,1.315-2.891l0.037-16.305
						C421.3,326.584,419.285,323.095,416.79,321.654z"/>
				</g>
				<g>
					<path style="fill:#A49EFF;" d="M413.957,323.3c2.496,1.441,4.51,4.93,4.502,7.79l-0.037,16.305
						c-0.008,2.861-2.036,4.016-4.531,2.575l-15.375-8.923c-2.802,5.228-7.196,3.989-10.128,2.297
						c-1.793-1.035-2.978-2.181-3.04-2.241c3.399,0.256,4.622-2.626,5.064-4.733l-1.418-0.819c-2.489-1.437-4.51-4.93-4.502-7.79
						l0.037-16.305c0.008-2.861,2.042-4.012,4.532-2.575L413.957,323.3z"/>
				</g>
				<g>
					<path style="fill:#FFFFFF;" d="M396.533,328.385c0,0.994-0.702,1.395-1.569,0.895c-0.867-0.5-1.569-1.712-1.569-2.706
						s0.702-1.395,1.569-0.895C395.83,326.179,396.533,327.391,396.533,328.385z"/>
					<path style="fill:#FFFFFF;" d="M400.498,330.675c0,0.994-0.703,1.395-1.569,0.895c-0.867-0.5-1.569-1.712-1.569-2.706
						c0-0.994,0.702-1.395,1.569-0.895C399.796,328.469,400.498,329.681,400.498,330.675z"/>
					<path style="fill:#FFFFFF;" d="M404.464,332.964c0,0.994-0.702,1.395-1.569,0.895c-0.866-0.5-1.569-1.712-1.569-2.706
						c0-0.994,0.703-1.395,1.569-0.895C403.761,330.758,404.464,331.97,404.464,332.964z"/>
					<path style="fill:#FFFFFF;" d="M408.429,335.254c0,0.994-0.702,1.395-1.569,0.895c-0.867-0.5-1.569-1.712-1.569-2.706
						s0.702-1.395,1.569-0.895C407.727,333.048,408.429,334.26,408.429,335.254z"/>
				</g>
			</g>
		</g>
	</g>
	<g>
		<path style="fill:#372FC2;" d="M363.283,172.407v6.574l-18.96-10.948c-0.587-0.342-1.066-1.164-1.066-1.839l0.029-8.922
			l16.896,9.754C362.099,168.142,363.283,170.186,363.283,172.407z"/>
	</g>
	<g>
		<path style="fill:#737373;" d="M387.881,131.741l-43.334-25.03c-0.295-0.171-0.564-0.187-0.758-0.074l-3.505,2.003
			c0.194-0.113,0.462-0.097,0.758,0.074l43.334,25.03c0.589,0.34,1.063,1.161,1.061,1.839l-0.14,49.53
			c-0.001,0.335-0.12,0.572-0.311,0.683l3.506-2.003c0.191-0.111,0.31-0.348,0.311-0.683l0.141-49.53
			C388.945,132.903,388.471,132.082,387.881,131.741z"/>
		<g>
			<path style="fill:#404040;" d="M384.376,133.745c0.589,0.34,1.063,1.161,1.061,1.839l-0.14,49.53
				c-0.002,0.674-0.479,0.949-1.069,0.609l-43.334-25.03c-0.586-0.338-1.063-1.165-1.061-1.839l0.14-49.53
				c0.002-0.677,0.482-0.947,1.069-0.609L384.376,133.745z"/>
		</g>
		<g>
			<path style="fill:#FF3D44;" d="M373.922,134.498c0.989,0.571,1.976,1.577,2.725,2.881l2.44,4.213
				c1.499,2.609,1.491,5.421-0.018,6.281l-8.875,5.045l8.818,15.273c1.499,2.596,1.491,5.408-0.018,6.268l-2.456,1.399
				c-0.754,0.43-1.743,0.292-2.732-0.28c-0.989-0.571-1.979-1.575-2.733-2.876l-8.807-15.267l-8.864,5.064
				c-0.76,0.427-1.749,0.288-2.737-0.282c-0.988-0.57-1.974-1.573-2.729-2.874l-2.429-4.219c-1.51-2.602-1.502-5.415,0.018-6.268
				l8.864-5.064l-8.807-15.254c-1.51-2.602-1.502-5.415,0.018-6.281l2.444-1.393c0.76-0.433,1.749-0.298,2.737,0.272
				c0.988,0.57,1.974,1.576,2.729,2.883l8.807,15.254l8.864-5.052C371.941,133.79,372.933,133.927,373.922,134.498z"/>
		</g>
	</g>
	<g>
		<g>
			<path style="fill:#1A1A1A;" d="M126.015,114.784L82.68,89.754c-0.296-0.17-0.564-0.187-0.758-0.074l-3.506,2.003
				c0.194-0.113,0.463-0.097,0.758,0.074l43.334,25.03c0.59,0.34,1.064,1.161,1.062,1.839l-0.14,49.531
				c-0.001,0.335-0.119,0.572-0.311,0.683l3.506-2.003c0.191-0.111,0.31-0.348,0.311-0.683l0.14-49.531
				C127.078,115.945,126.604,115.124,126.015,114.784z"/>
			<g>
				<path style="fill:#737373;" d="M122.509,116.787c0.59,0.34,1.064,1.161,1.062,1.839l-0.14,49.531
					c-0.002,0.674-0.479,0.949-1.068,0.609l-43.334-25.03c-0.586-0.339-1.063-1.165-1.062-1.839l0.14-49.531
					c0.002-0.677,0.482-0.947,1.068-0.609L122.509,116.787z"/>
			</g>
			<g>
				<path style="fill:#FFFFFF;" d="M114.729,141.924l-3.665-1.641c-0.275,1.059-0.696,1.965-1.245,2.702l2.289,4.644l-3.451,1.962
					l-2.875-4.308c-0.919,0.093-1.919-0.001-2.978-0.304l-0.428,3.971l-4.864-2.812l-0.399-4.447
					c-1.057-0.925-2.054-1.982-2.968-3.137l-2.894,0.975l-3.425-5.938l2.312-1.984c-0.539-1.367-0.953-2.756-1.22-4.127
					l-3.662-2.595l0.02-5.586l3.667,1.646c0.277-1.057,0.698-1.964,1.247-2.701l-2.287-4.643l3.454-1.96l2.874,4.311
					c0.913-0.092,1.91,0.002,2.963,0.302l0.426-3.973l4.862,2.807l0.402,4.451c1.057,0.923,2.054,1.978,2.968,3.133l2.894-0.977
					l3.427,5.937l-2.31,1.985c0.539,1.367,0.953,2.753,1.222,4.13l3.662,2.591L114.729,141.924z M99.987,136.218
					c2.692,1.555,4.882,0.307,4.891-2.785c0.009-3.094-2.166-6.861-4.859-8.416c-2.691-1.553-4.88-0.306-4.889,2.788
					C95.121,130.897,97.296,134.664,99.987,136.218L99.987,136.218z"/>
			</g>
		</g>
		<path style="fill:#F2F2F2;" d="M116.678,183.997l-39.656-22.909c-0.71-0.41-0.62-1.125,0.199-1.598l4.214-2.433
			c0.819-0.473,2.058-0.524,2.768-0.115l39.656,22.909c0.71,0.41,0.62,1.125-0.199,1.598l-4.214,2.433
			C118.627,184.356,117.388,184.407,116.678,183.997z"/>
	</g>
</g>
</svg>
